OpenSim_Sub07_CSBaseline_LCS.mot
version=1
nRows=78
nColumns=11
inDegrees=no
endheader
time	Bot_Shank	2nd_Bot_Shank	2nd_Top_Shank	Top_Shank	Bot_Thigh	Med_Thigh	Top_Thigh	BNOx	BNOy	BNOZ
38.94000000	9401.11151256	8633.10060857	9644.01043735	9188.20128222	10452.76144224	10778.69244438	12438.51402642	179.02614143	-76.74735330	-191.15778163
38.95000000	9347.21106646	8603.07634075	9614.92155714	9164.68049322	10474.01099710	10784.55385968	12432.08559091	177.27585599	-76.42296921	-180.44427117
38.96000000	9293.09874113	8575.53581704	9591.08975498	9147.65205617	10499.63682424	10793.03760844	12430.66286211	175.42571359	-75.97566530	-166.36891967
38.97000000	9241.02548759	8552.49736639	9574.20134918	9138.76388540	10530.26172974	10805.52140512	12436.50294842	173.46709976	-75.39681809	-150.68454524
38.98000000	9193.24225687	8535.97931773	9565.94265808	9139.66389523	10566.50851964	10823.38296416	12451.86295825	171.39140005	-74.67780415	-135.14396598
38.99000000	9152	8528	9568	9152	10609	10848	12479	169.19000000	-73.81000000	-121.50000000
39	9119.20099348	8529.92387146	9581.48747977	9176.97440047	10657.98338317	10880.30743885	12519.19664082	166.86492206	-72.79329276	-111.11091436
39.01000000	9095.35281572	8540.49990770	9605.23034820	9214.00644311	10712.20350663	10919.46905390	12569.83728289	164.46073639	-71.66161178	-103.75677196
39.02000000	9080.61437061	8557.82321367	9637.48164263	9262.06976084	10770.02961415	10964.20583011	12627.33178713	162.03265004	-70.45739699	-98.82308468
39.03000000	9075.14456203	8579.98889429	9676.49440037	9320.13798654	10829.83094950	11013.23875242	12688.09001447	159.63587008	-69.22308830	-95.69536439
39.04000000	9079.10229386	8605.09205449	9720.52165875	9387.18475314	10889.97675644	11065.28880578	12748.52182583	157.32560358	-68.00112563	-93.75912294
39.05000000	9092.64646999	8631.22779921	9767.81645509	9462.18369352	10948.83627875	11119.07697516	12805.03708213	155.15705761	-66.83394890	-92.39987221
39.06000000	9115.93599431	8656.49123338	9816.63182672	9544.10844060	11004.77876018	11173.32424549	12854.04564431	153.18543922	-65.76399804	-91.00312406
39.07000000	9149.12977070	8678.97746192	9865.22081095	9631.93262729	11056.17344452	11226.75160173	12891.95737328	151.46595549	-64.83371295	-88.95439037
39.08000000	9192.05105389	8697.08571165	9911.98923957	9724.50262145	11101.57393345	11278.17030383	12915.96721525	150.04153928	-64.07945145	-85.79256352
39.09000000	9242.70764651	8710.86013754	9956.16937585	9819.97644254	11140.53097995	11326.87988924	12927.51646928	148.88873494	-63.50467448	-81.88613731
39.10000000	9298.49636842	8720.89848815	9997.27161508	9916.28044925	11172.93092405	11372.34422319	12929.47552656	147.96174407	-63.10177169	-77.88280435
39.11000000	9356.81357908	8727.79892922	10034.80656218	10011.34082571	11198.66035869	11414.02729469	12924.71585522	147.21475144	-62.86312441	-74.43046768
39.12000000	9415.05563793	8732.15962651	10068.28482202	10103.08375603	11217.60587679	11451.39309279	12916.10892336	146.60194181	-62.78111394	-72.17703032
39.13000000	9470.61890444	8734.57874576	10097.21699950	10189.43542434	11229.65407128	11483.90560653	12906.52619913	146.07749994	-62.84812161	-71.77039530
39.14000000	9520.89973804	8735.65445272	10121.11369951	10268.32201476	11234.69153509	11511.02882494	12898.83915065	145.59561060	-63.05652872	-73.85846565
39.15000000	9563.29449819	8735.98491314	10139.48552696	10337.66971140	11232.60486114	11532.22673706	12895.91924603	145.11045854	-63.39871659	-79.08914440
39.16000000	9595.65752839	8736.09710775	10151.97529732	10395.69019028	11223.37156124	11547.01081478	12900.04225495	144.59058265	-63.86656702	-87.88406162
39.17000000	9618.32030683	8736.13299338	10158.94092401	10442.13928989	11207.46090726	11555.14935428	12910.26194572	144.08216005	-64.44926004	-99.44098699
39.18000000	9632.44798088	8736.10494865	10160.98098361	10477.29253014	11185.50767088	11556.49708486	12924.54773572	143.65749671	-65.13506642	-112.54580513
39.19000000	9639.20632614	8736.02525454	10158.69423407	10501.42582255	11158.14674848	11550.90880097	12940.86822516	143.38891827	-65.91225624	-125.98409029
39.20000000	9639.76111824	8735.90619203	10152.67943334	10514.81507862	11126.01303644	11538.23929705	12957.19201427	143.34875039	-66.76909959	-138.54141671
39.21000000	9635.27813278	8735.76004211	10143.53533937	10517.73620988	11089.74143117	11518.34336753	12971.48770325	143.60931870	-67.69386654	-149.00335861
39.22000000	9626.92314538	8735.59908574	10131.86071010	10510.46512783	11049.96682902	11491.07580687	12981.72389234	144.24294887	-68.67482719	-156.15549024
39.23000000	9615.86193166	8735.43560391	10118.25430348	10493.27774399	11007.32412641	11456.29140948	12985.86918175	145.32196653	-69.70025161	-158.78338584
39.24000000	9603.26026722	8735.28187761	10103.31487746	10466.44996988	10962.44821970	11413.84496983	12981.89217171	146.91869733	-70.75840988	-155.67261964
39.25000000	9590.28392767	8735.15018782	10087.64118999	10430.25771701	10915.97400528	11363.59128235	12967.76146243	149.10546693	-71.83757209	-145.60876589
39.26000000	9578.09868865	8735.05281550	10071.83199901	10384.97689690	10868.53637955	11305.38514147	12941.44565413	151.95460097	-72.92600831	-127.37739881
39.27000000	9567.87032574	8735.00204165	10056.48606248	10330.88342106	10820.77023888	11239.08134164	12900.91334703	155.53842509	-74.01198864	-99.76409266
39.28000000	9560.45744025	8735.00535656	10042.12479649	10268.46512639	10773.47449038	11165.09228330	12844.98689792	159.89032341	-75.07653549	-62.16458324
39.29000000	9555.05719534	8735.04433880	10028.85129215	10199.35610746	10728.33513898	11086.84633461	12777.10644423	164.83305373	-76.06147028	-17.27483567
39.30000000	9550.30760423	8735.09184641	10016.62785507	10125.57622698	10687.33673859	11008.78687493	12702.26621798	170.11848850	-76.89542149	31.09850675
39.31000000	9544.84625874	8735.12073091	10005.41668476	10049.14563839	10652.46406812	10935.35804852	12625.46162233	175.49844677	-77.50700766	79.14796370
39.32000000	9537.31075071	8735.10384379	9995.17998074	9972.08449513	10625.70190648	10871.00399961	12551.68806043	180.72474754	-77.82484733	123.06605489
39.33000000	9526.33867198	8735.01403655	9985.87994252	9896.41295061	10609.03503258	10820.16887246	12485.94093545	185.54920985	-77.77755905	159.04530001
39.34000000	9510.92419825	8734.83226608	9977.51455761	9824.07989287	10603.82542120	10786.38315042	12432.38297207	189.76441815	-77.30970154	183.93980365
39.35000000	9491.99018864	8734.58332959	9970.27538285	9756.64875103	10608.06643715	10768.23552669	12390.67312116	193.38344801	-76.45205049	198.18203692
39.36000000	9471.10859252	8734.30677859	9964.41912007	9695.55322969	10618.61775380	10762.65155590	12358.95460747	196.49358039	-75.26439754	203.40875512
39.37000000	9449.85184839	8734.04217567	9960.20252015	9642.22693566	10632.33819017	10766.55553938	12335.36951357	199.18215215	-73.80655619	201.25762105
39.38000000	9429.79239476	8733.82908344	9957.88233400	9598.10347576	10646.08656529	10776.87177845	12318.05992201	201.53650014	-72.13833994	193.36629752
39.39000000	9412.50267013	8733.70706452	9957.71531252	9564.61645682	10656.72169819	10790.52457443	12305.16791534	203.64396124	-70.31956231	181.37244732
39.40000000	9399.55511303	8733.71568150	9959.95820660	9543.19948566	10661.10240790	10804.43822863	12294.83557612	205.59187231	-68.41003678	166.91373327
39.41000000	9392.52216195	8733.89449701	9964.86776715	9535.28616910	10656.08751345	10815.53704238	12285.20498689	207.46757022	-66.46957687	151.62781816
39.42000000	9392.97625540	8734.28307363	9972.70074505	9542.31011396	10638.53583386	10820.74531700	12274.41823022	209.35839182	-64.55799607	137.15236481
39.43000000	9402.48983190	8734.92097400	9983.71389122	9565.70492707	10605.30618817	10816.98735380	12260.61738865	211.35167398	-62.73510790	125.12503601
39.44000000	9421.99624296	8735.81573112	9997.96683393	9606.04642535	10554.36349672	10801.91813646	12242.46758132	213.51269642	-61.05409451	116.89663519
39.45000000	9448.97215971	8736.80163710	10014.45300874	9659.27082957	10489.65533751	10777.14474808	12221.46291676	215.78743655	-59.53227051	112.26640671
39.46000000	9479.73092211	8737.65468053	10031.80702858	9719.75292401	10417.14272677	10745.60433416	12200.04958793	218.08172114	-58.17487949	110.51142428
39.47000000	9510.58499345	8738.15080605	10048.66323596	9781.86631628	10342.78819797	10710.23504249	12180.67450524	220.30134668	-56.98715591	110.90836810
39.48000000	9537.84683701	8738.06595833	10063.65597340	9839.98461402	10272.55428460	10673.97502088	12165.78457913	222.35210966	-55.97433424	112.73391840
39.49000000	9557.82891608	8737.17608202	10075.41958340	9888.48142483	10212.40352016	10639.76241712	12157.82672003	224.13980658	-55.14164895	115.26475537
39.50000000	9566.84369394	8735.25712177	10082.58840848	9921.73035632	10168.29843813	10610.53537901	12159.24783836	225.57023393	-54.49433452	117.77755925
39.51000000	9562.04241310	8732.15607496	10084.08498423	9935.28252457	10145.05679554	10588.78292503	12171.93164975	226.56658763	-54.03610116	119.65244676
39.52000000	9545.11308754	8728.10424747	10080.39061894	9931.05792877	10141.30450631	10574.56483234	12194.71567354	227.14617326	-53.76241478	120.82900005
39.53000000	9519.27056253	8723.46228256	10072.51121929	9913.11998885	10153.58364573	10567.12332719	12225.41224461	227.35796858	-53.66596668	121.43508696
39.54000000	9487.73083394	8718.59092097	10061.45308725	9885.53373997	10178.43471876	10565.70001976	12261.83292524	227.25097525	-53.73944608	121.59871722
39.55000000	9453.70989762	8713.85090344	10048.22252482	9852.36421731	10212.39823033	10569.53652021	12301.78927774	226.87419489	-53.97554220	121.44790056
39.56000000	9420.42374945	8709.60297070	10033.82583399	9817.67645602	10252.01468541	10577.87443871	12343.09286440	226.27662917	-54.36694426	121.11064671
39.57000000	9391.08838528	8706.20786350	10019.26931674	9785.53549128	10293.82458894	10589.95538543	12383.55524752	225.50727971	-54.90634147	120.71496541
39.58000000	9368.91980098	8704.02632257	10005.55927508	9760.00635824	10334.36844587	10605.02097053	12420.98798940	224.61514815	-55.58642306	120.38886638
39.59000000	9357.13399240	8703.41908865	9993.70201099	9745.15409207	10370.18676115	10622.31280418	12453.20265234	223.64923616	-56.39987823	120.26035935
39.60000000	9358.94695542	8704.74690247	9984.70382645	9745.04372795	10397.82003972	10641.07249654	12478.01079864	222.65854535	-57.33939621	120.45745406
39.61000000	9376.61104954	8708.23603805	9979.34974079	9762.56484622	10414.52811857	10660.57894755	12493.69312334	221.68700206	-58.39239145	121.07901652
39.62000000	9407.16653805	8713.38546850	9977.22790422	9794.24925185	10421.46154279	10680.31274914	12501.06775694	220.75108132	-59.51774830	122.06628085
39.63000000	9445.89957525	8719.44939692	9977.52366569	9834.48906729	10421.08025884	10699.82237188	12501.80679311	219.85801953	-60.66474946	123.30743079
39.64000000	9488.09499362	8725.68184195	9979.42207062	9877.67480262	10415.84519991	10718.65633746	12497.58296906	219.01504614	-61.78267038	124.69061013
39.65000000	9529.03762559	8731.33682223	9982.10816444	9918.19696788	10408.21729922	10736.36316761	12490.06902200	218.22939061	-62.82078652	126.10396263
39.66000000	9564.01230361	8735.66835640	9984.76699255	9950.44607314	10400.65748997	10752.49138403	12480.93768912	217.50828239	-63.72837333	127.43563209
39.67000000	9589.06557205	8738.06503857	9986.69846063	9969.74770519	10395.27327190	10766.65556189	12471.73577069	216.85705920	-64.46384219	128.59098149
39.68000000	9604.36390662	8738.64335184	9987.82372805	9976.48507447	10392.26050128	10778.82754504	12463.32890175	216.27082690	-65.03501875	129.56850883
39.69000000	9611.46032858	8737.76474729	9988.27303450	9972.74351329	10391.17167880	10789.09941458	12456.35347411	215.74124784	-65.46635881	130.39805629
39.70000000	9611.90890405	8735.79086060	9988.17677720	9960.60963666	10391.55882037	10797.56334222	12451.44570681	215.25998177	-65.78233068	131.10948967
39.71000000	9607.26369916	8733.08332746	9987.66535342	9942.17005956	10392.97394187	10804.31149966	12449.24181890	214.81868846	-66.00740270	131.73267477
